<svg xmlns="http://www.w3.org/2000/svg" width="214" height="30" viewBox="0 0 214 30"><rect width="214" height="30" fill="rgba(255,255,255,0)"/><g transform="translate(0 0.5)"><path d="M450.794,287.578v-6.122h10.665v28.1h-6.853V287.578Z" transform="translate(-450.794 -280.802)" fill="#3988fb"/><path d="M481.786,302.708q3.773-3.119,5.948-5.121a24.628,24.628,0,0,0,3.677-4.2,7.584,7.584,0,0,0,1.5-4.273,3.767,3.767,0,0,0-.732-2.464,3.043,3.043,0,0,0-4.486.212,5.054,5.054,0,0,0-.827,3.1h-6.353a10.9,10.9,0,0,1,1.4-5.467,8.16,8.16,0,0,1,3.5-3.234,11.061,11.061,0,0,1,4.832-1.039q4.581,0,6.91,2.349a8.32,8.32,0,0,1,2.329,6.121,12.006,12.006,0,0,1-2.811,7.642,41.374,41.374,0,0,1-7.16,6.872H499.92v5.352H480.592v-4.889Q481.9,302.631,481.786,302.708Z" transform="translate(-465.655 -280.185)" fill="#3988fb"/><path d="M527.909,282.38a10.075,10.075,0,0,1,6.892-2.233,11.223,11.223,0,0,1,4.947,1,7.087,7.087,0,0,1,4.177,6.622,6.365,6.365,0,0,1-4.235,6.314v.154a6.95,6.95,0,0,1,3.465,2.426,7.057,7.057,0,0,1,1.271,4.35,8.034,8.034,0,0,1-1.1,4.216,7.5,7.5,0,0,1-3.2,2.868,12.849,12.849,0,0,1-12.358-1.232q-2.753-2.271-2.907-6.853h6.391a3.877,3.877,0,0,0,.962,2.676,3.524,3.524,0,0,0,2.7.982,3.07,3.07,0,0,0,2.329-.866,3.178,3.178,0,0,0,.828-2.291,3.045,3.045,0,0,0-1.174-2.676,6.639,6.639,0,0,0-3.753-.828h-1.232v-5.352h1.232a6.508,6.508,0,0,0,3.176-.674,2.511,2.511,0,0,0,1.213-2.406,2.917,2.917,0,0,0-.77-2.156,2.865,2.865,0,0,0-2.118-.77,2.625,2.625,0,0,0-2.175.885,3.968,3.968,0,0,0-.828,2.194h-6.43A8.455,8.455,0,0,1,527.909,282.38Z" transform="translate(-487.831 -280.147)" fill="#3988fb"/><g transform="translate(64.661 0.094)"><path d="M591.839,288.864a3.724,3.724,0,0,1-.51,4.99,5.335,5.335,0,0,1-3.48,1.02h-6.98v-14.1h6.76a5.383,5.383,0,0,1,3.39.96,3.35,3.35,0,0,1-1.15,5.9A3.326,3.326,0,0,1,591.839,288.864Zm-7.05-2.49h1.98q1.48,0,1.48-1.22,0-1.259-1.48-1.26h-1.98Zm3.76,4.1a1.229,1.229,0,0,0-.39-.98,1.639,1.639,0,0,0-1.11-.34h-2.26v2.56h2.28Q588.549,291.713,588.549,290.474Z" transform="translate(-580.493 -280.554)" fill="#fff"/><path d="M611.629,283.914v2.3h4.5v2.98h-4.5v2.54h5.1v3.141h-9.02v-14.1h9.02v3.141Z" transform="translate(-593.913 -280.554)" fill="#fff"/><path d="M639.468,280.773v3.12h-3.76v10.98h-3.92v-10.98h-3.72v-3.12Z" transform="translate(-604.092 -280.554)" fill="#fff"/><path d="M653.618,304.664a1.867,1.867,0,0,1-.63-1.45,1.9,1.9,0,0,1,.63-1.46,2.369,2.369,0,0,1,1.67-.58,2.341,2.341,0,0,1,1.65.58,1.9,1.9,0,0,1,.63,1.46,1.878,1.878,0,0,1-.63,1.44,2.341,2.341,0,0,1-1.65.58A2.392,2.392,0,0,1,653.618,304.664Z" transform="translate(-616.552 -290.754)" fill="#fff"/><path d="M665.737,283.944a6.256,6.256,0,0,1,2.471-2.54,7.318,7.318,0,0,1,3.68-.91,6.982,6.982,0,0,1,4.44,1.41,6.4,6.4,0,0,1,2.32,3.831h-4.22a2.832,2.832,0,0,0-1.05-1.221,2.862,2.862,0,0,0-1.55-.42,2.684,2.684,0,0,0-2.17.97,4.577,4.577,0,0,0,0,5.2,2.682,2.682,0,0,0,2.17.971,2.862,2.862,0,0,0,1.55-.42,2.828,2.828,0,0,0,1.05-1.22h4.22a6.4,6.4,0,0,1-2.32,3.831,6.982,6.982,0,0,1-4.44,1.41,7.313,7.313,0,0,1-3.68-.91,6.25,6.25,0,0,1-2.471-2.541,8.391,8.391,0,0,1,0-7.439Z" transform="translate(-622.492 -280.414)" fill="#fff"/><path d="M698.787,293.864a6.93,6.93,0,0,1-2.63-2.581,7.657,7.657,0,0,1,0-7.46,6.852,6.852,0,0,1,2.63-2.569,7.68,7.68,0,0,1,7.29,0,6.8,6.8,0,0,1,2.61,2.569,7.727,7.727,0,0,1,0,7.46,6.861,6.861,0,0,1-2.62,2.581,7.588,7.588,0,0,1-7.28,0Zm6.01-3.69a4.425,4.425,0,0,0,0-5.27,3.391,3.391,0,0,0-4.75,0,4.481,4.481,0,0,0,0,5.28,3.38,3.38,0,0,0,4.75-.009Z" transform="translate(-637.652 -280.334)" fill="#fff"/><path d="M744.087,280.773v14.1h-3.92v-7.78l-2.66,7.78h-3.28l-2.68-7.84v7.84h-3.92v-14.1h4.74l3.54,9.16,3.46-9.16Z" transform="translate(-653.872 -280.554)" fill="#fff"/><path d="M775.577,287.8a4.265,4.265,0,0,1-1.78,1.679,6.157,6.157,0,0,1-2.91.631h-1.94v4.76h-3.92v-14.1h5.86a6.364,6.364,0,0,1,2.89.6,4.126,4.126,0,0,1,1.79,1.66,4.867,4.867,0,0,1,.6,2.44A4.678,4.678,0,0,1,775.577,287.8Zm-3.41-2.33q0-1.541-1.66-1.54h-1.56v3.06h1.56Q772.167,286.993,772.167,285.474Z" transform="translate(-672.572 -280.554)" fill="#fff"/><path d="M798.427,292.573h-5l-.76,2.3h-4.12l5.14-14.1h4.52l5.12,14.1h-4.14Zm-.98-3-1.52-4.56-1.5,4.56Z" transform="translate(-684.332 -280.554)" fill="#fff"/><path d="M833.726,294.874h-3.92l-5.22-7.88v7.88h-3.92v-14.1h3.92l5.22,7.98v-7.98h3.92Z" transform="translate(-700.391 -280.554)" fill="#fff"/><path d="M863.046,280.773l-4.96,9.62v4.48h-3.94v-4.48l-4.96-9.62h4.48l2.479,5.44,2.48-5.44Z" transform="translate(-714.651 -280.554)" fill="#fff"/><path d="M582.169,327.766h2.688v1.584h-4.74v-8.423h2.052Z" transform="translate(-580.117 -300.63)" fill="#dec06e"/><path d="M593.544,320.926v5.04a1.665,1.665,0,0,0,.372,1.164,1.4,1.4,0,0,0,1.092.408,1.441,1.441,0,0,0,1.1-.408,1.632,1.632,0,0,0,.384-1.164v-5.04h2.052v5.027a3.581,3.581,0,0,1-.479,1.909,3.073,3.073,0,0,1-1.29,1.175,4.05,4.05,0,0,1-1.806.4,3.949,3.949,0,0,1-1.782-.39,2.907,2.907,0,0,1-1.242-1.176,3.758,3.758,0,0,1-.456-1.914v-5.027Z" transform="translate(-585.805 -300.63)" fill="#dec06e"/><path d="M613.188,329.349l-1.716-2.58-1.512,2.58h-2.328l2.7-4.284-2.76-4.139h2.388l1.692,2.544,1.488-2.544h2.328l-2.676,4.248,2.784,4.175Z" transform="translate(-593.844 -300.63)" fill="#dec06e"/><path d="M627.624,320.926v5.04A1.666,1.666,0,0,0,628,327.13a1.4,1.4,0,0,0,1.092.408,1.441,1.441,0,0,0,1.1-.408,1.632,1.632,0,0,0,.384-1.164v-5.04h2.052v5.027a3.581,3.581,0,0,1-.48,1.909,3.075,3.075,0,0,1-1.29,1.175,4.054,4.054,0,0,1-1.807.4,3.949,3.949,0,0,1-1.782-.39,2.906,2.906,0,0,1-1.242-1.176,3.757,3.757,0,0,1-.456-1.914v-5.027Z" transform="translate(-602.844 -300.63)" fill="#dec06e"/><path d="M646.86,329.349l-1.752-3.18h-.492v3.18h-2.052v-8.423h3.444a3.8,3.8,0,0,1,1.7.348,2.4,2.4,0,0,1,1.049.954,2.663,2.663,0,0,1,.349,1.35,2.505,2.505,0,0,1-.474,1.5,2.556,2.556,0,0,1-1.4.936l1.944,3.336Zm-2.244-4.631h1.272a1.162,1.162,0,0,0,.846-.277,1.041,1.041,0,0,0,.282-.78,1.009,1.009,0,0,0-.282-.755,1.164,1.164,0,0,0-.846-.276h-1.272Z" transform="translate(-611.341 -300.63)" fill="#dec06e"/><path d="M660.263,320.926v8.423h-2.052v-8.423Z" transform="translate(-619.164 -300.63)" fill="#dec06e"/><path d="M666.75,328.762a4.129,4.129,0,0,1-1.572-1.542,4.538,4.538,0,0,1,0-4.447,4.142,4.142,0,0,1,1.572-1.536,4.576,4.576,0,0,1,4.356,0,4.05,4.05,0,0,1,1.56,1.536,4.6,4.6,0,0,1-.005,4.447,4.1,4.1,0,0,1-1.56,1.542,4.566,4.566,0,0,1-4.35,0Zm3.792-1.992a2.913,2.913,0,0,0,0-3.559,2.076,2.076,0,0,0-1.614-.666,2.1,2.1,0,0,0-1.626.66,2.931,2.931,0,0,0,0,3.57,2.087,2.087,0,0,0,1.626.666A2.065,2.065,0,0,0,670.542,326.77Z" transform="translate(-622.357 -300.51)" fill="#dec06e"/><path d="M686.135,320.926v5.04a1.666,1.666,0,0,0,.372,1.164,1.4,1.4,0,0,0,1.092.408,1.441,1.441,0,0,0,1.1-.408,1.632,1.632,0,0,0,.384-1.164v-5.04h2.052v5.027a3.577,3.577,0,0,1-.48,1.909,3.072,3.072,0,0,1-1.29,1.175,4.05,4.05,0,0,1-1.806.4,3.951,3.951,0,0,1-1.782-.39,2.908,2.908,0,0,1-1.242-1.176,3.757,3.757,0,0,1-.456-1.914v-5.027Z" transform="translate(-632.1 -300.63)" fill="#dec06e"/><path d="M702.227,329.014a2.7,2.7,0,0,1-1.17-.889,2.425,2.425,0,0,1-.462-1.416h2.184a1.054,1.054,0,0,0,.324.714,1.041,1.041,0,0,0,.72.246,1.123,1.123,0,0,0,.72-.21.7.7,0,0,0,.264-.582.69.69,0,0,0-.21-.516,1.719,1.719,0,0,0-.516-.336,8.208,8.208,0,0,0-.87-.3,9.448,9.448,0,0,1-1.332-.5,2.461,2.461,0,0,1-.888-.744,2.075,2.075,0,0,1-.372-1.285,2.207,2.207,0,0,1,.852-1.841,3.5,3.5,0,0,1,2.22-.666,3.542,3.542,0,0,1,2.244.666,2.383,2.383,0,0,1,.912,1.854h-2.22a.87.87,0,0,0-.3-.642,1.06,1.06,0,0,0-.708-.233.881.881,0,0,0-.6.2.716.716,0,0,0-.228.571.7.7,0,0,0,.384.635,6.247,6.247,0,0,0,1.2.492,11.11,11.11,0,0,1,1.326.527,2.534,2.534,0,0,1,.882.732,1.964,1.964,0,0,1,.371,1.236,2.426,2.426,0,0,1-.365,1.307,2.563,2.563,0,0,1-1.062.936,3.629,3.629,0,0,1-1.644.348A4.341,4.341,0,0,1,702.227,329.014Z" transform="translate(-640.356 -300.51)" fill="#dec06e"/><path d="M722.974,327.766h2.688v1.584h-4.74v-8.423h2.052Z" transform="translate(-650.52 -300.63)" fill="#dec06e"/><path d="M734.423,320.926v8.423h-2.052v-8.423Z" transform="translate(-656.244 -300.63)" fill="#dec06e"/><path d="M746.723,320.926l-2.988,8.423h-2.568l-2.988-8.423h2.184l2.088,6.36,2.1-6.36Z" transform="translate(-659.148 -300.63)" fill="#dec06e"/><path d="M759.022,322.57v1.7h2.748v1.584h-2.748v1.848h3.108v1.644h-5.159v-8.423h5.159v1.644Z" transform="translate(-668.544 -300.63)" fill="#dec06e"/><path d="M781.318,325.755a2.21,2.21,0,0,1-.294,2.976,3.115,3.115,0,0,1-2.058.618h-3.924v-8.423h3.792a3.106,3.106,0,0,1,2.01.588,2.131,2.131,0,0,1,.336,2.832,2.016,2.016,0,0,1-1.038.684A1.961,1.961,0,0,1,781.318,325.755Zm-4.224-1.422h1.344a1.191,1.191,0,0,0,.774-.221.8.8,0,0,0,.27-.654.815.815,0,0,0-.27-.66,1.166,1.166,0,0,0-.774-.228h-1.344Zm2.31,3.126a.83.83,0,0,0,.282-.678.869.869,0,0,0-.294-.7,1.2,1.2,0,0,0-.81-.252h-1.488v1.861h1.512A1.215,1.215,0,0,0,779.4,327.46Z" transform="translate(-677.579 -300.63)" fill="#dec06e"/><path d="M792.91,322.57v1.7h2.748v1.584H792.91v1.848h3.108v1.644h-5.16v-8.423h5.16v1.644Z" transform="translate(-685.487 -300.63)" fill="#dec06e"/><path d="M809.446,320.926v1.644h-2.232v6.779h-2.052V322.57H802.93v-1.644Z" transform="translate(-691.523 -300.63)" fill="#dec06e"/><path d="M823.63,320.926v1.644H821.4v6.779h-2.052V322.57h-2.232v-1.644Z" transform="translate(-698.615 -300.63)" fill="#dec06e"/><path d="M834.26,320.926v8.423h-2.052v-8.423Z" transform="translate(-706.163 -300.63)" fill="#dec06e"/><path d="M846.824,329.349h-2.051l-3.432-5.2v5.2h-2.052v-8.423h2.052l3.432,5.22v-5.22h2.051Z" transform="translate(-709.703 -300.63)" fill="#dec06e"/><path d="M862.581,323.493a1.535,1.535,0,0,0-.654-.642,2.14,2.14,0,0,0-1-.223,2.063,2.063,0,0,0-1.6.654,2.484,2.484,0,0,0-.6,1.746,2.512,2.512,0,0,0,.63,1.819,2.3,2.3,0,0,0,1.734.654,2.1,2.1,0,0,0,1.278-.384,2.174,2.174,0,0,0,.762-1.1h-2.6V324.5h4.464v1.908a4.036,4.036,0,0,1-.774,1.428,4.086,4.086,0,0,1-1.386,1.068,4.283,4.283,0,0,1-1.9.409,4.5,4.5,0,0,1-2.226-.546,3.9,3.9,0,0,1-1.524-1.518,4.8,4.8,0,0,1,0-4.447,3.9,3.9,0,0,1,1.518-1.524,4.458,4.458,0,0,1,2.22-.546,4.316,4.316,0,0,1,2.55.732,3.46,3.46,0,0,1,1.374,2.029Z" transform="translate(-718.379 -300.534)" fill="#dec06e"/></g></g></svg>