<svg xmlns="http://www.w3.org/2000/svg" width="56.595" height="28.99" viewBox="0 0 56.595 28.99"><g transform="translate(-45.9 2)"><g transform="translate(45.9 -2)"><path d="M450.794,287.578v-6.122h10.665v28.1h-6.853V287.578Z" transform="translate(-450.794 -280.802)" fill="#3988fb"/><path d="M481.786,302.708q3.773-3.119,5.948-5.121a24.628,24.628,0,0,0,3.677-4.2,7.584,7.584,0,0,0,1.5-4.273,3.767,3.767,0,0,0-.732-2.464,3.043,3.043,0,0,0-4.486.212,5.054,5.054,0,0,0-.827,3.1h-6.353a10.9,10.9,0,0,1,1.4-5.467,8.16,8.16,0,0,1,3.5-3.234,11.061,11.061,0,0,1,4.832-1.039q4.581,0,6.91,2.349a8.32,8.32,0,0,1,2.329,6.121,12.006,12.006,0,0,1-2.811,7.642,41.374,41.374,0,0,1-7.16,6.872H499.92v5.352H480.592v-4.889Q481.9,302.631,481.786,302.708Z" transform="translate(-465.655 -280.185)" fill="#3988fb"/><path d="M527.909,282.38a10.075,10.075,0,0,1,6.892-2.233,11.223,11.223,0,0,1,4.947,1,7.087,7.087,0,0,1,4.177,6.622,6.365,6.365,0,0,1-4.235,6.314v.154a6.95,6.95,0,0,1,3.465,2.426,7.057,7.057,0,0,1,1.271,4.35,8.034,8.034,0,0,1-1.1,4.216,7.5,7.5,0,0,1-3.2,2.868,12.849,12.849,0,0,1-12.358-1.232q-2.753-2.271-2.907-6.853h6.391a3.877,3.877,0,0,0,.962,2.676,3.524,3.524,0,0,0,2.7.982,3.07,3.07,0,0,0,2.329-.866,3.178,3.178,0,0,0,.828-2.291,3.045,3.045,0,0,0-1.174-2.676,6.639,6.639,0,0,0-3.753-.828h-1.232v-5.352h1.232a6.508,6.508,0,0,0,3.176-.674,2.511,2.511,0,0,0,1.213-2.406,2.917,2.917,0,0,0-.77-2.156,2.865,2.865,0,0,0-2.118-.77,2.625,2.625,0,0,0-2.175.885,3.968,3.968,0,0,0-.828,2.194h-6.43A8.455,8.455,0,0,1,527.909,282.38Z" transform="translate(-487.831 -280.147)" fill="#3988fb"/></g></g></svg>